PathFileType	4	(X/Y/Z)	D:\TRACE\spot_10-12-23\spot_arm_motion_1_5-platform.trc
DataRate	CameraRate	NumFrames	NumMarkers	Units	OrigDataRate	OrigDataStartFrame	OrigNumFrames
100.00	100.00	      68	5	mm	100.00	876	      7000
Frame#	Time	Left_Front			Right_Front			Left_Aft			Right_Aft			Post			
		X1	Y1	Z1	X2	Y2	Z2	X3	Y3	Z3	X4	Y4	Z4	X5	Y5	Z5	

876	8.750	-740.41919	2.67256	-642.42621	832.22998	7.58230	-635.56750	-657.49225	7.56976	495.49219	759.76282	12.78682	581.76996	42.31836	738.93335	-964.36389	
877	8.760	-739.97705	2.38571	-642.44171	832.74066	7.29197	-635.63055	-656.78497	7.80940	495.39142	759.59351	12.89187	581.75732	43.04752	738.41357	-964.78979	
878	8.770	-739.08539	1.89794	-642.52850	833.36200	6.96484	-635.61444	-656.43237	8.00818	495.27609	760.57153	13.38911	581.70642	43.72770	737.98651	-965.39587	
879	8.780	-738.54749	1.71236	-642.74750	834.15027	6.62020	-635.78113	-655.48492	8.26540	495.35501	761.31226	13.58746	581.57477	44.05978	737.71002	-965.88043	
880	8.790	-738.06152	1.42017	-642.83240	834.83997	6.30359	-635.82629	-654.99268	8.61937	495.07251	761.87720	13.91980	581.45361	44.98629	737.01727	-966.31262	
881	8.800	-737.30707	0.80860	-642.80255	835.44250	5.88675	-635.81030	-654.54553	8.72598	494.91418	762.60645	14.25525	581.30731	45.52584	736.26190	-966.77692	
882	8.810	-736.77527	0.46770	-642.85876	835.72528	5.52037	-635.86969	-653.81183	8.85037	495.14624	763.34766	14.55801	581.12402	46.00329	735.74982	-967.16345	
883	8.820	-736.17682	0.06922	-642.97333	836.18188	5.10146	-635.96783	-653.21204	9.25914	494.81467	764.11340	14.92585	580.90289	46.49021	735.32190	-967.63245	
884	8.830	-735.29620	-0.51097	-643.03638	836.77118	4.72384	-636.09387	-652.88464	9.50228	494.79907	764.70673	15.16088	580.82794	47.28283	734.78296	-968.00922	
885	8.840	-735.13550	-0.51275	-643.07172	837.44171	4.43364	-636.30469	-652.36749	9.68618	494.72556	765.22461	15.38711	580.82532	47.72695	734.21472	-968.39569	
886	8.850	-734.91028	-0.63333	-643.15656	838.03003	4.07655	-636.41620	-651.63660	10.03433	494.70575	765.55927	15.61803	580.78070	48.16380	733.83899	-968.84619	
887	8.860	-734.32849	-1.06032	-643.29169	838.35968	3.74546	-636.49377	-651.19299	10.26406	494.53369	766.04156	15.91350	580.64471	48.68324	733.31525	-969.38135	
888	8.870	-734.08612	-1.33263	-643.26227	838.68591	3.35846	-636.56732	-650.87830	10.40245	494.48587	766.58240	16.36991	580.50256	48.95726	732.68921	-969.69293	
889	8.880	-733.32898	-1.98745	-643.44104	839.05469	2.97333	-636.62689	-650.46863	10.63776	494.45386	767.04407	16.65543	580.32251	49.45930	732.02539	-970.34357	
890	8.890	-732.94342	-2.31884	-643.50446	839.42975	2.67270	-636.69556	-650.00977	10.88417	494.38977	767.41602	16.88098	580.27362	49.91717	731.52911	-970.93597	
891	8.900	-732.68494	-2.62952	-643.53802	839.72766	2.43103	-636.77008	-649.54492	11.07150	494.29996	767.68781	17.10796	580.25238	50.19467	731.09430	-971.31482	
892	8.910	-732.17816	-3.30551	-643.63287	840.16809	2.10000	-636.84949	-649.35370	11.18778	494.15332	767.98108	17.37677	580.22546	50.49493	730.61652	-971.81250	
893	8.920	-731.84772	-3.82255	-643.62103	840.66864	1.67320	-636.87299	-649.09827	11.40719	494.08240	768.46820	17.70060	580.15668	50.78582	730.12518	-972.38647	
894	8.930	-731.66595	-3.96457	-643.87579	841.20862	1.22509	-636.85107	-648.82159	11.64530	494.08966	768.83917	18.01658	580.04193	51.15384	729.63910	-972.95819	
895	8.940	-731.42712	-4.27714	-644.00024	841.39764	0.91071	-636.99603	-648.46265	11.98603	494.00513	769.17389	18.31577	579.85724	51.31548	728.98358	-973.37622	
896	8.950	-731.23218	-4.63574	-644.06879	841.43646	0.63706	-637.06525	-648.18396	12.33367	493.91281	769.29199	18.53892	579.67529	51.59520	728.43829	-973.75922	
897	8.960	-731.05975	-4.98206	-644.10822	841.60858	0.27616	-637.06873	-648.09351	12.63131	493.78610	769.35791	18.81452	579.48108	51.84330	727.95374	-974.12878	
898	8.970	-731.27600	-5.17822	-644.04810	841.77417	0.03452	-637.12848	-648.04980	12.86360	493.65503	769.48615	19.07955	579.38220	52.03358	727.49951	-974.52820	
899	8.980	-731.18970	-5.42919	-644.17004	841.96271	-0.27031	-637.20728	-647.93970	13.06063	493.61685	769.61804	19.36554	579.29517	52.11419	726.87256	-974.82581	
900	8.990	-730.89984	-5.90313	-644.31580	842.06976	-0.70624	-637.30975	-647.83588	13.31754	493.51630	769.70526	19.69315	579.20190	52.26117	726.21887	-975.36206	
901	9.000	-730.76074	-6.28534	-644.43958	842.04132	-1.23753	-637.52429	-647.70892	13.51395	493.45239	769.80969	19.93501	579.11505	52.38167	725.70367	-975.80676	
902	9.010	-730.66675	-6.66466	-644.48560	842.04663	-1.55606	-637.62927	-647.66949	13.85201	493.42776	769.83209	20.13306	579.02704	52.35263	725.23151	-976.31927	
903	9.020	-730.64838	-7.07340	-644.45953	842.09772	-1.89884	-637.62036	-647.63330	14.10532	493.31961	769.90326	20.42874	578.90356	52.27465	724.55707	-976.88391	
904	9.030	-730.51245	-7.52489	-644.55072	842.17969	-2.30844	-637.59778	-647.61975	14.30195	493.18274	770.07568	20.82821	578.78076	52.12579	724.14722	-977.31897	
905	9.040	-730.52087	-7.93891	-644.60333	842.18567	-2.60861	-637.63617	-647.66498	14.51978	492.96207	770.02667	21.11699	578.67816	52.19987	723.66180	-977.91211	
906	9.050	-730.46149	-8.37178	-644.76892	842.17560	-2.90128	-637.79279	-647.58063	14.62371	493.04962	769.68652	21.62868	579.13214	52.31780	723.18140	-978.47644	
907	9.060	-730.47278	-8.65977	-644.92395	842.15509	-3.21597	-637.98907	-647.66327	14.88648	492.97021	769.71411	21.82089	579.03400	52.37153	722.43622	-978.83643	
908	9.070	-730.36560	-9.00763	-645.03827	842.19434	-3.55237	-638.13342	-647.65277	15.08604	492.83606	769.69635	22.04152	578.91437	52.46168	721.93555	-979.16815	
909	9.080	-730.35657	-9.31958	-645.09039	842.30389	-3.90277	-638.16211	-647.71265	15.36315	492.77002	769.68182	22.22842	578.79803	52.42491	721.62738	-979.59668	
910	9.090	-730.29877	-9.61183	-645.21899	842.19257	-4.22618	-638.24713	-647.75140	15.65566	492.70340	769.69214	22.54315	578.65759	52.41049	721.29224	-980.05103	
911	9.100	-730.36816	-10.02534	-645.32837	842.21613	-4.60800	-638.20837	-647.67084	15.81743	492.64407	769.68622	22.80451	578.59576	52.38954	720.49329	-980.66974	
912	9.110	-730.66138	-10.30940	-645.25763	842.07861	-4.95278	-638.29065	-647.63629	15.97197	492.54968	769.56055	23.08328	578.53851	52.09882	719.81866	-981.14160	
913	9.120	-730.88147	-10.55586	-645.36011	841.78247	-5.41453	-638.44208	-647.89948	16.34900	492.25305	769.30731	23.42481	578.38715	52.06526	719.43170	-981.43427	
914	9.130	-731.34833	-10.87082	-645.40021	841.40845	-5.70264	-638.64093	-648.29718	16.73084	492.19910	769.02942	23.70119	578.22852	51.82303	719.05920	-981.74823	
915	9.140	-731.58795	-11.19517	-645.53748	841.10931	-5.96861	-638.61316	-648.56464	16.99763	492.11850	768.67175	24.05346	578.10284	51.33562	718.46063	-982.12445	
916	9.150	-731.72742	-11.59441	-645.59137	840.79871	-6.20576	-638.61292	-648.85382	17.30194	492.00446	768.44672	24.35000	578.03015	51.03166	717.82538	-982.63177	
917	9.160	-731.95624	-11.96530	-645.54297	840.30371	-6.64985	-638.87201	-649.02667	17.38575	491.90594	768.28821	24.62511	577.95605	50.94774	717.38422	-983.09100	
918	9.170	-732.33087	-12.37706	-645.59064	840.06274	-6.98623	-639.00360	-649.21716	17.57392	491.76910	767.96259	24.89327	577.86169	50.67669	716.85468	-983.70874	
919	9.180	-732.65460	-12.69472	-645.65179	839.89410	-7.44965	-639.05066	-649.58081	17.75171	491.63208	768.14288	25.09699	577.66150	50.61307	716.29315	-984.25159	
920	9.190	-732.56293	-13.06147	-645.83777	839.81146	-7.80364	-638.92694	-649.88837	17.96028	491.60904	767.41461	25.35475	577.86804	50.29095	715.80817	-984.74127	
921	9.200	-732.82098	-13.28319	-645.86334	839.53192	-8.09991	-639.10278	-650.10114	18.08911	491.56808	767.13403	25.68565	577.82220	50.10688	715.44470	-985.06750	
922	9.210	-733.29956	-13.64667	-645.88531	839.35809	-8.33270	-638.98798	-650.40906	18.36157	491.46243	766.88849	25.98708	577.76392	49.61362	715.05127	-985.56299	
923	9.220	-733.57190	-14.12576	-645.94843	839.04138	-8.58280	-638.98956	-650.90637	18.54308	491.43558	766.47845	26.22034	577.59320	49.01340	714.54279	-986.04462	
924	9.230	-733.84491	-14.45735	-646.03247	838.59088	-8.83789	-639.13196	-651.35321	18.82453	491.34775	765.93121	26.42105	577.46771	48.63052	714.10107	-986.40741	
925	9.240	-734.58936	-14.36556	-646.18085	838.31067	-9.25562	-639.09863	-651.66907	19.01573	491.26779	765.45850	26.62312	577.38812	48.40415	713.57159	-986.64294	
926	9.250	-735.11609	-14.60608	-646.23224	837.64825	-9.78357	-639.25769	-652.05682	19.16275	491.16449	765.10498	26.84919	577.36401	47.92513	712.97003	-986.86078	
927	9.260	-735.53839	-15.03684	-646.16547	837.12128	-10.23984	-639.31519	-652.45673	19.31443	491.01547	764.74487	27.04584	577.30695	47.67383	712.61560	-987.04938	
928	9.270	-735.93420	-15.58307	-646.33282	836.53735	-10.30764	-639.45795	-652.84082	19.54063	490.88757	764.36963	27.39650	577.17169	47.09741	712.14441	-987.55933	
929	9.280	-736.30743	-15.89406	-646.47827	836.18005	-10.47066	-639.59637	-653.37128	19.80112	490.79391	764.00092	27.62524	577.10962	46.59801	711.54718	-987.95978	
930	9.290	-736.65479	-16.21044	-646.36127	835.97351	-10.63286	-639.56793	-653.88043	20.06339	490.72015	763.39569	27.81640	577.09204	46.00326	711.05511	-988.43445	
931	9.300	-737.04150	-16.56397	-646.59570	835.44745	-11.11773	-639.69983	-654.44702	20.35642	490.73959	762.65405	28.02519	576.95984	45.91887	710.72076	-988.73303	
932	9.310	-737.44977	-17.01105	-646.62421	834.80634	-11.61063	-639.78412	-654.81787	20.46382	490.77258	762.27466	28.32256	576.96082	45.40748	710.39069	-989.19928	
933	9.320	-738.00867	-17.09073	-646.61462	834.23633	-11.83083	-639.79791	-655.25348	20.62570	490.84113	761.92615	28.58191	576.91608	44.11413	710.61871	-989.63092	
934	9.330	-738.47900	-17.39956	-646.80182	833.87708	-12.00193	-639.85345	-655.78534	20.81003	490.75290	761.62286	28.78480	576.85559	45.32190	708.93671	-990.94177	
935	9.340	-739.01239	-17.46068	-646.83350	833.43408	-12.11751	-639.86823	-656.35803	20.95996	490.64542	761.19153	28.96783	576.71936	43.95026	709.03949	-990.59851	
936	9.350	-739.68597	-17.68356	-646.76276	833.12250	-12.32331	-639.88940	-656.88007	21.16321	490.45029	760.39038	29.24389	576.56287	43.51247	708.68579	-990.95563	
937	9.360	-740.62787	-17.80387	-646.79987	832.54944	-12.64687	-639.93408	-657.44501	21.45056	490.39169	759.88818	29.40985	576.53680	42.64308	708.23773	-991.53516	
938	9.370	-741.13165	-17.86819	-646.80841	831.85461	-13.01114	-639.89105	-657.93054	21.68280	490.39154	759.47687	29.68342	576.47534	42.17012	707.85120	-991.81610	
939	9.380	-741.30414	-18.28127	-646.89679	831.02600	-13.37414	-640.12177	-658.45642	21.81217	490.37360	758.95746	29.84174	576.46747	41.70746	707.49005	-991.94025	
940	9.390	-742.01099	-18.49392	-647.00641	830.45441	-13.49384	-640.25623	-659.06055	21.90152	490.33261	758.25653	30.00019	576.43866	42.68539	706.39716	-992.71448	
941	9.400	-742.62524	-18.93133	-646.98956	830.00513	-13.67401	-640.30945	-659.47406	22.06982	490.28851	757.37823	30.15095	576.30481	40.67178	706.71405	-992.10889	
942	9.410	-743.27496	-19.23522	-647.05975	829.42456	-13.85614	-640.32727	-660.26178	22.09407	490.25418	756.92310	30.25983	576.23071	39.85521	706.51208	-992.36609	
943	9.420	-743.69464	-19.50793	-647.20093	828.87433	-14.15683	-640.24146	-660.94080	22.26254	490.15076	756.45496	30.37626	576.14874	39.10555	706.27643	-992.68024	
